<svg width="142" height="29" viewBox="0 0 142 29" fill="none" xmlns="http://www.w3.org/2000/svg">
<g filter="url(#filter0_d_1_84)">
<path d="M33.244 20L28.402 14.402V20H26.35V7.49H28.402V13.196L33.262 7.49H35.836L30.4 13.754L35.926 20H33.244ZM37.0566 14.996C37.0566 14 37.2606 13.118 37.6686 12.35C38.0886 11.582 38.6526 10.988 39.3606 10.568C40.0806 10.136 40.8726 9.92 41.7366 9.92C42.5166 9.92 43.1946 10.076 43.7706 10.388C44.3586 10.688 44.8266 11.066 45.1746 11.522V10.082H47.2446V20H45.1746V18.524C44.8266 18.992 44.3526 19.382 43.7526 19.694C43.1526 20.006 42.4686 20.162 41.7006 20.162C40.8486 20.162 40.0686 19.946 39.3606 19.514C38.6526 19.07 38.0886 18.458 37.6686 17.678C37.2606 16.886 37.0566 15.992 37.0566 14.996ZM45.1746 15.032C45.1746 14.348 45.0306 13.754 44.7426 13.25C44.4666 12.746 44.1006 12.362 43.6446 12.098C43.1886 11.834 42.6966 11.702 42.1686 11.702C41.6406 11.702 41.1486 11.834 40.6926 12.098C40.2366 12.35 39.8646 12.728 39.5766 13.232C39.3006 13.724 39.1626 14.312 39.1626 14.996C39.1626 15.68 39.3006 16.28 39.5766 16.796C39.8646 17.312 40.2366 17.708 40.6926 17.984C41.1606 18.248 41.6526 18.38 42.1686 18.38C42.6966 18.38 43.1886 18.248 43.6446 17.984C44.1006 17.72 44.4666 17.336 44.7426 16.832C45.0306 16.316 45.1746 15.716 45.1746 15.032ZM51.9918 11.558C52.3398 11.078 52.8138 10.688 53.4138 10.388C54.0258 10.076 54.7038 9.92 55.4478 9.92C56.3238 9.92 57.1158 10.13 57.8238 10.55C58.5318 10.97 59.0898 11.57 59.4978 12.35C59.9058 13.118 60.1098 14 60.1098 14.996C60.1098 15.992 59.9058 16.886 59.4978 17.678C59.0898 18.458 58.5258 19.07 57.8058 19.514C57.0978 19.946 56.3118 20.162 55.4478 20.162C54.6798 20.162 53.9958 20.012 53.3958 19.712C52.8078 19.412 52.3398 19.028 51.9918 18.56V20H49.9398V6.68H51.9918V11.558ZM58.0218 14.996C58.0218 14.312 57.8778 13.724 57.5898 13.232C57.3138 12.728 56.9418 12.35 56.4738 12.098C56.0178 11.834 55.5258 11.702 54.9978 11.702C54.4818 11.702 53.9898 11.834 53.5218 12.098C53.0658 12.362 52.6938 12.746 52.4058 13.25C52.1298 13.754 51.9918 14.348 51.9918 15.032C51.9918 15.716 52.1298 16.316 52.4058 16.832C52.6938 17.336 53.0658 17.72 53.5218 17.984C53.9898 18.248 54.4818 18.38 54.9978 18.38C55.5258 18.38 56.0178 18.248 56.4738 17.984C56.9418 17.708 57.3138 17.312 57.5898 16.796C57.8778 16.28 58.0218 15.68 58.0218 14.996ZM71.2291 14.798C71.2291 15.17 71.2051 15.506 71.1571 15.806H63.5791C63.6391 16.598 63.9331 17.234 64.4611 17.714C64.9891 18.194 65.6371 18.434 66.4051 18.434C67.5091 18.434 68.2891 17.972 68.7451 17.048H70.9591C70.6591 17.96 70.1131 18.71 69.3211 19.298C68.5411 19.874 67.5691 20.162 66.4051 20.162C65.4571 20.162 64.6051 19.952 63.8491 19.532C63.1051 19.1 62.5171 18.5 62.0851 17.732C61.6651 16.952 61.4551 16.052 61.4551 15.032C61.4551 14.012 61.6591 13.118 62.0671 12.35C62.4871 11.57 63.0691 10.97 63.8131 10.55C64.5691 10.13 65.4331 9.92 66.4051 9.92C67.3411 9.92 68.1751 10.124 68.9071 10.532C69.6391 10.94 70.2091 11.516 70.6171 12.26C71.0251 12.992 71.2291 13.838 71.2291 14.798ZM69.0871 14.15C69.0751 13.394 68.8051 12.788 68.2771 12.332C67.7491 11.876 67.0951 11.648 66.3151 11.648C65.6071 11.648 65.0011 11.876 64.4971 12.332C63.9931 12.776 63.6931 13.382 63.5971 14.15H69.0871ZM82.3384 14.798C82.3384 15.17 82.3144 15.506 82.2664 15.806H74.6884C74.7484 16.598 75.0424 17.234 75.5704 17.714C76.0984 18.194 76.7464 18.434 77.5144 18.434C78.6184 18.434 79.3984 17.972 79.8544 17.048H82.0684C81.7684 17.96 81.2224 18.71 80.4304 19.298C79.6504 19.874 78.6784 20.162 77.5144 20.162C76.5664 20.162 75.7144 19.952 74.9584 19.532C74.2144 19.1 73.6264 18.5 73.1944 17.732C72.7744 16.952 72.5644 16.052 72.5644 15.032C72.5644 14.012 72.7684 13.118 73.1764 12.35C73.5964 11.57 74.1784 10.97 74.9224 10.55C75.6784 10.13 76.5424 9.92 77.5144 9.92C78.4504 9.92 79.2844 10.124 80.0164 10.532C80.7484 10.94 81.3184 11.516 81.7264 12.26C82.1344 12.992 82.3384 13.838 82.3384 14.798ZM80.1964 14.15C80.1844 13.394 79.9144 12.788 79.3864 12.332C78.8584 11.876 78.2044 11.648 77.4244 11.648C76.7164 11.648 76.1104 11.876 75.6064 12.332C75.1024 12.776 74.8024 13.382 74.7064 14.15H80.1964ZM86.4098 11.522C86.7098 11.018 87.1058 10.628 87.5978 10.352C88.1018 10.064 88.6958 9.92 89.3798 9.92V12.044H88.8578C88.0538 12.044 87.4418 12.248 87.0218 12.656C86.6138 13.064 86.4098 13.772 86.4098 14.78V20H84.3578V10.082H86.4098V11.522ZM103.304 7.49V9.164H97.9938V12.854H102.134V14.528H97.9938V20H95.9418V7.49H103.304ZM109.507 20.162C108.571 20.162 107.725 19.952 106.969 19.532C106.213 19.1 105.619 18.5 105.187 17.732C104.755 16.952 104.539 16.052 104.539 15.032C104.539 14.024 104.761 13.13 105.205 12.35C105.649 11.57 106.255 10.97 107.023 10.55C107.791 10.13 108.649 9.92 109.597 9.92C110.545 9.92 111.403 10.13 112.171 10.55C112.939 10.97 113.545 11.57 113.989 12.35C114.433 13.13 114.655 14.024 114.655 15.032C114.655 16.04 114.427 16.934 113.971 17.714C113.515 18.494 112.891 19.1 112.099 19.532C111.319 19.952 110.455 20.162 109.507 20.162ZM109.507 18.38C110.035 18.38 110.527 18.254 110.983 18.002C111.451 17.75 111.829 17.372 112.117 16.868C112.405 16.364 112.549 15.752 112.549 15.032C112.549 14.312 112.411 13.706 112.135 13.214C111.859 12.71 111.493 12.332 111.037 12.08C110.581 11.828 110.089 11.702 109.561 11.702C109.033 11.702 108.541 11.828 108.085 12.08C107.641 12.332 107.287 12.71 107.023 13.214C106.759 13.706 106.627 14.312 106.627 15.032C106.627 16.1 106.897 16.928 107.437 17.516C107.989 18.092 108.679 18.38 109.507 18.38ZM120.986 20.162C120.05 20.162 119.204 19.952 118.448 19.532C117.692 19.1 117.098 18.5 116.666 17.732C116.234 16.952 116.018 16.052 116.018 15.032C116.018 14.024 116.24 13.13 116.684 12.35C117.128 11.57 117.734 10.97 118.502 10.55C119.27 10.13 120.128 9.92 121.076 9.92C122.024 9.92 122.882 10.13 123.65 10.55C124.418 10.97 125.024 11.57 125.468 12.35C125.912 13.13 126.134 14.024 126.134 15.032C126.134 16.04 125.906 16.934 125.45 17.714C124.994 18.494 124.37 19.1 123.578 19.532C122.798 19.952 121.934 20.162 120.986 20.162ZM120.986 18.38C121.514 18.38 122.006 18.254 122.462 18.002C122.93 17.75 123.308 17.372 123.596 16.868C123.884 16.364 124.028 15.752 124.028 15.032C124.028 14.312 123.89 13.706 123.614 13.214C123.338 12.71 122.972 12.332 122.516 12.08C122.06 11.828 121.568 11.702 121.04 11.702C120.512 11.702 120.02 11.828 119.564 12.08C119.12 12.332 118.766 12.71 118.502 13.214C118.238 13.706 118.106 14.312 118.106 15.032C118.106 16.1 118.376 16.928 118.916 17.516C119.468 18.092 120.158 18.38 120.986 18.38ZM127.479 14.996C127.479 14 127.683 13.118 128.091 12.35C128.511 11.582 129.075 10.988 129.783 10.568C130.503 10.136 131.301 9.92 132.177 9.92C132.825 9.92 133.461 10.064 134.085 10.352C134.721 10.628 135.225 11 135.597 11.468V6.68H137.667V20H135.597V18.506C135.261 18.986 134.793 19.382 134.193 19.694C133.605 20.006 132.927 20.162 132.159 20.162C131.295 20.162 130.503 19.946 129.783 19.514C129.075 19.07 128.511 18.458 128.091 17.678C127.683 16.886 127.479 15.992 127.479 14.996ZM135.597 15.032C135.597 14.348 135.453 13.754 135.165 13.25C134.889 12.746 134.523 12.362 134.067 12.098C133.611 11.834 133.119 11.702 132.591 11.702C132.063 11.702 131.571 11.834 131.115 12.098C130.659 12.35 130.287 12.728 129.999 13.232C129.723 13.724 129.585 14.312 129.585 14.996C129.585 15.68 129.723 16.28 129.999 16.796C130.287 17.312 130.659 17.708 131.115 17.984C131.583 18.248 132.075 18.38 132.591 18.38C133.119 18.38 133.611 18.248 134.067 17.984C134.523 17.72 134.889 17.336 135.165 16.832C135.453 16.316 135.597 15.716 135.597 15.032Z" fill="white"/>
<circle cx="12" cy="13" r="8" fill="#FF922C"/>
<path d="M15 16.5C15 14.8431 12 9 12 9C12 9 9 14.8431 9 16.5C9 18.1569 10.3431 19.5 12 19.5C13.6569 19.5 15 18.1569 15 16.5Z" fill="white"/>
</g>
<defs>
<filter id="filter0_d_1_84" x="0" y="5" width="141.667" height="24" filterUnits="userSpaceOnUse" color-interpolation-filters="sRGB">
<feFlood flood-opacity="0" result="BackgroundImageFix"/>
<feColorMatrix in="SourceAlpha" type="matrix" values="0 0 0 0 0 0 0 0 0 0 0 0 0 0 0 0 0 0 127 0" result="hardAlpha"/>
<feOffset dy="4"/>
<feGaussianBlur stdDeviation="2"/>
<feComposite in2="hardAlpha" operator="out"/>
<feColorMatrix type="matrix" values="0 0 0 0 0 0 0 0 0 0 0 0 0 0 0 0 0 0 0.25 0"/>
<feBlend mode="normal" in2="BackgroundImageFix" result="effect1_dropShadow_1_84"/>
<feBlend mode="normal" in="SourceGraphic" in2="effect1_dropShadow_1_84" result="shape"/>
</filter>
</defs>
</svg>
